<svg width="78" height="48" viewBox="0 0 78 48" fill="none" xmlns="http://www.w3.org/2000/svg">
<rect x="0.5" y="0.5" width="77" height="47" stroke="black"/>
<path d="M20.832 28.08C20.832 29.36 20.672 30.5067 20.352 31.52C20.0427 32.5333 19.5787 33.392 18.96 34.096C18.352 34.7893 17.6 35.3227 16.704 35.696C15.808 36.0693 14.7787 36.256 13.616 36.256C12.56 36.256 11.4827 36.1067 10.384 35.808C10.4053 35.4987 10.432 35.1947 10.464 34.896C10.496 34.5867 10.5227 34.2827 10.544 33.984C10.5653 33.8027 10.6293 33.6587 10.736 33.552C10.8533 33.4347 11.0293 33.376 11.264 33.376C11.456 33.376 11.7067 33.424 12.016 33.52C12.336 33.616 12.7627 33.664 13.296 33.664C14 33.664 14.6293 33.5573 15.184 33.344C15.7387 33.1307 16.2027 32.8 16.576 32.352C16.9493 31.904 17.232 31.3333 17.424 30.64C17.6267 29.936 17.728 29.104 17.728 28.144V13.072H20.832V28.08ZM28.2193 24.544C28.2193 25.952 28.4113 27.216 28.7953 28.336C29.1793 29.4453 29.7233 30.3893 30.4273 31.168C31.1419 31.936 32.0006 32.528 33.0033 32.944C34.0059 33.3493 35.1206 33.552 36.3473 33.552C37.5846 33.552 38.7046 33.3493 39.7073 32.944C40.7099 32.528 41.5633 31.936 42.2673 31.168C42.9713 30.3893 43.5153 29.4453 43.8993 28.336C44.2833 27.216 44.4753 25.952 44.4753 24.544C44.4753 23.136 44.2833 21.872 43.8993 20.752C43.5153 19.632 42.9713 18.688 42.2673 17.92C41.5633 17.1413 40.7099 16.544 39.7073 16.128C38.7046 15.712 37.5846 15.504 36.3473 15.504C35.1206 15.504 34.0059 15.712 33.0033 16.128C32.0006 16.544 31.1419 17.1413 30.4273 17.92C29.7233 18.688 29.1793 19.632 28.7953 20.752C28.4113 21.872 28.2193 23.136 28.2193 24.544ZM48.7153 40.736H46.1553C45.7713 40.736 45.4299 40.6827 45.1313 40.576C44.8326 40.4693 44.5606 40.2827 44.3153 40.016L40.2993 35.632C39.0833 36.0373 37.7659 36.24 36.3473 36.24C34.6619 36.24 33.1259 35.9573 31.7393 35.392C30.3526 34.816 29.1633 34.0107 28.1713 32.976C27.1793 31.9413 26.4113 30.7093 25.8673 29.28C25.3233 27.84 25.0513 26.2613 25.0513 24.544C25.0513 22.8267 25.3233 21.2533 25.8673 19.824C26.4113 18.384 27.1793 17.1467 28.1713 16.112C29.1633 15.0667 30.3526 14.256 31.7393 13.68C33.1259 13.104 34.6619 12.816 36.3473 12.816C38.0326 12.816 39.5686 13.104 40.9553 13.68C42.3526 14.256 43.5473 15.0667 44.5393 16.112C45.5313 17.1467 46.2993 18.384 46.8433 19.824C47.3873 21.2533 47.6593 22.8267 47.6593 24.544C47.6593 25.6213 47.5473 26.6453 47.3233 27.616C47.1099 28.5867 46.7953 29.4933 46.3793 30.336C45.9633 31.168 45.4566 31.9253 44.8593 32.608C44.2619 33.2907 43.5899 33.8827 42.8433 34.384L48.7153 40.736ZM66.2283 33.472L66.2123 36H52.0843V13.072H66.2123V15.6H55.1883V23.216H64.1163V25.648H55.1883V33.472H66.2283Z" fill="black"/>
</svg>
