<svg width="80" height="95" viewBox="0 0 80 95" fill="none" xmlns="http://www.w3.org/2000/svg">
<g clip-path="url(#clip0_2_175)">
<mask id="mask0_2_175" style="mask-type:luminance" maskUnits="userSpaceOnUse" x="0" y="0" width="80" height="95">
<path d="M80 0H0V95H80V0Z" fill="white"/>
</mask>
<g mask="url(#mask0_2_175)">
<path fill-rule="evenodd" clip-rule="evenodd" d="M48.5998 47.6958L41.4874 14.3396C18.9897 14.3396 0.751831 32.3961 0.751831 54.6698C0.751831 76.9436 19.7721 95 41.4874 95C63.2025 95 74.0934 67.9466 74.0934 67.9466" fill="#FDDB97"/>
<path fill-rule="evenodd" clip-rule="evenodd" d="M41.0542 80.6605C18.6035 80.6605 0.339417 62.5675 0.339417 40.3302C0.339417 18.0921 18.6035 0 41.0542 0V2.81364C20.1706 2.81364 3.17989 19.6431 3.17989 40.3302C3.17989 61.0166 20.1706 77.8461 41.0542 77.8461C51.2635 77.8461 60.8372 73.8818 68.0103 66.6834L70.0311 68.6605C62.3204 76.3984 52.0294 80.6605 41.0542 80.6605Z" fill="#262626"/>
<path fill-rule="evenodd" clip-rule="evenodd" d="M46.6221 37.1288C46.4182 37.1288 46.211 37.0859 46.0152 36.9932L44.1534 36.1211C43.4451 35.7884 43.1416 34.9499 43.4775 34.248C43.8135 33.5449 44.6594 33.2458 45.3684 33.5778L47.2303 34.4506C47.9387 34.7828 48.2421 35.6219 47.9062 36.3237C47.6638 36.8316 47.1537 37.1288 46.6221 37.1288Z" fill="#262626"/>
<path fill-rule="evenodd" clip-rule="evenodd" d="M51.8682 33.1418H51.5498L51.2491 33.007L44.1547 29.6928C43.4456 29.3614 43.1416 28.5228 43.4768 27.8197C43.8115 27.1173 44.6559 26.8168 45.367 27.1481L52.4195 30.4429C52.9253 30.6582 53.2823 31.1561 53.2823 31.735C53.2823 32.5118 52.6524 33.1418 51.8682 33.1418Z" fill="#262626"/>
<path fill-rule="evenodd" clip-rule="evenodd" d="M57.1001 29.1427C56.8976 29.1427 56.6931 29.0998 56.4973 29.0093L44.1575 23.2772C43.4477 22.9479 43.1422 22.11 43.4755 21.4063C43.808 20.7019 44.6532 20.4006 45.3643 20.7301L57.7036 26.4619C58.414 26.792 58.7195 27.6293 58.3862 28.333C58.1452 28.8428 57.6331 29.1427 57.1001 29.1427Z" fill="#262626"/>
<path fill-rule="evenodd" clip-rule="evenodd" d="M62.332 25.1557C62.1295 25.1557 61.9243 25.1128 61.7293 25.0222L44.1568 16.8483C43.4477 16.5175 43.1416 15.6796 43.4755 14.9758C43.808 14.2722 44.6533 13.9702 45.365 14.301L62.9368 22.475C63.6466 22.8057 63.952 23.6436 63.6188 24.3467C63.3764 24.8565 62.8658 25.1557 62.332 25.1557Z" fill="#262626"/>
<path fill-rule="evenodd" clip-rule="evenodd" d="M67.5782 21.168C67.3757 21.168 67.1704 21.1258 66.9747 21.0352L44.1568 10.4187C43.4477 10.0886 43.1416 9.25066 43.4755 8.54691C43.808 7.84384 44.6533 7.5406 45.365 7.87202L68.1829 18.4879C68.892 18.818 69.1982 19.6567 68.8642 20.3597C68.6225 20.8695 68.1113 21.168 67.5782 21.168Z" fill="#262626"/>
<path fill-rule="evenodd" clip-rule="evenodd" d="M71.5897 16.6075C71.3873 16.6075 71.182 16.5652 70.9869 16.4746L44.0004 3.91991C43.5393 3.68713 43.2215 3.21282 43.2215 2.66673C43.2215 1.88985 43.8515 1.2599 44.6357 1.2599H45.0177L45.34 1.43836L72.1939 13.9273C72.9042 14.2574 73.2097 15.0959 72.8764 15.7984C72.6341 16.3089 72.1235 16.6075 71.5897 16.6075Z" fill="#262626"/>
<path fill-rule="evenodd" clip-rule="evenodd" d="M48.0321 41.1238L69.117 61.7357C74.3136 56.0346 77.1596 48.7228 77.1596 40.9917C77.1596 34.5593 75.2131 28.4483 71.5165 23.2317L48.0321 41.1238ZM69.1651 65.7368L43.7186 40.8595L72.0603 19.2681L72.926 20.3818C77.5537 26.3344 80 33.4605 80 40.9917C80 49.9378 76.5066 58.3699 70.1634 64.7358L69.1651 65.7368Z" fill="#262626"/>
<path fill-rule="evenodd" clip-rule="evenodd" d="M41.0541 43.4631C40.2698 43.4631 39.6339 42.8333 39.6339 42.0564V1.40682C39.6339 0.629949 40.2698 0 41.0541 0C41.8384 0 42.4744 0.629949 42.4744 1.40682V42.0564C42.4744 42.8333 41.8384 43.4631 41.0541 43.4631Z" fill="#262626"/>
<path fill-rule="evenodd" clip-rule="evenodd" d="M67.9458 70.1016C67.5828 70.1016 67.2191 69.964 66.9422 69.6897L40.0504 43.0513C39.495 42.5017 39.495 41.611 40.0504 41.0615C40.6051 40.512 41.5039 40.512 42.0585 41.0615L68.9503 67.6999C69.5049 68.2499 69.5049 69.1403 68.9503 69.6897C68.6725 69.964 68.3096 70.1016 67.9458 70.1016Z" fill="#262626"/>
</g>
</g>
<defs>
<clipPath id="clip0_2_175">
<rect width="80" height="95" fill="white"/>
</clipPath>
</defs>
</svg>
