<svg width="107" height="104" viewBox="0 0 107 104" fill="none" xmlns="http://www.w3.org/2000/svg">
<g clip-path="url(#clip0_2_204)">
<mask id="mask0_2_204" style="mask-type:luminance" maskUnits="userSpaceOnUse" x="0" y="0" width="107" height="104">
<path d="M107 0H0V104H107V0Z" fill="white"/>
</mask>
<g mask="url(#mask0_2_204)">
<path d="M72.069 31.8367H1.02998V104H72.069V31.8367Z" fill="#C9C6FF"/>
<path fill-rule="evenodd" clip-rule="evenodd" d="M21.5715 87.8901H28.2206V59.6201H21.5715V87.8901ZM18.0099 91.2653H31.7822V56.2449H18.0099V91.2653Z" fill="#262626"/>
<path fill-rule="evenodd" clip-rule="evenodd" d="M77.7263 87.8748H84.3628V49.0232H77.7263V87.8748ZM74.1584 91.2653H87.9307V45.6327H74.1584V91.2653Z" fill="#262626"/>
<path fill-rule="evenodd" clip-rule="evenodd" d="M96.7893 87.8992H103.438V22.4681H96.7893V87.8992ZM93.2277 91.2653H107V19.102H93.2277V91.2653Z" fill="#262626"/>
<path fill-rule="evenodd" clip-rule="evenodd" d="M40.6408 87.8433H47.2899V42.6873H40.6408V87.8433ZM37.0792 91.2653H50.8515V39.2653H37.0792V91.2653Z" fill="#262626"/>
<path fill-rule="evenodd" clip-rule="evenodd" d="M59.7164 87.9196H66.3529V33.06H59.7164V87.9196ZM56.1485 91.2653H69.9208V29.7143H56.1485V91.2653Z" fill="#262626"/>
<path fill-rule="evenodd" clip-rule="evenodd" d="M19.9119 49.8776C20.3475 49.8776 20.7921 49.7448 21.1478 49.4746L62.5738 18.1821L77.6451 30.359C77.6806 30.3888 77.7251 30.3998 77.7695 30.4265C77.8051 30.4525 77.8229 30.4901 77.8673 30.5137C77.9474 30.5632 78.0363 30.5876 78.1253 30.6244C78.1875 30.6495 78.2498 30.681 78.3119 30.6998C78.5075 30.7611 78.721 30.7996 78.9254 30.7996C79.1566 30.7996 79.3879 30.7501 79.6101 30.6763C79.6457 30.6629 79.6812 30.6543 79.7168 30.6386C79.9302 30.5546 80.117 30.4343 80.2859 30.2835C80.2947 30.271 80.3214 30.2662 80.3303 30.253C80.3481 30.2348 80.357 30.2113 80.3748 30.1932C80.4192 30.1468 80.4637 30.1084 80.5082 30.0565L96.8776 8.53897L96.1307 13.5981C95.9974 14.5186 96.7353 15.363 97.7757 15.4824C97.8646 15.4926 97.9447 15.4965 98.0246 15.4965C98.9672 15.4965 99.7852 14.8792 99.9096 14.0317L101.697 1.88695C101.715 1.81233 101.688 1.744 101.688 1.67095C101.688 1.57512 101.697 1.48165 101.679 1.38661C101.679 1.35205 101.661 1.31985 101.652 1.28529C101.626 1.18318 101.572 1.0952 101.519 1.00017C101.492 0.932618 101.483 0.860356 101.439 0.795948C101.439 0.788094 101.421 0.784952 101.421 0.777098C101.404 0.750392 101.377 0.728399 101.359 0.70248C101.288 0.616079 101.19 0.550886 101.11 0.477053C101.039 0.416573 100.977 0.341955 100.897 0.292471C100.888 0.287758 100.888 0.279118 100.879 0.27362C100.861 0.264195 100.834 0.263409 100.817 0.253984C100.737 0.206071 100.63 0.181722 100.541 0.146376C100.434 0.107103 100.328 0.0560486 100.221 0.0340559C100.185 0.0277721 100.15 0.0246304 100.114 0.0199176C100.096 0.0167758 100.079 0.00420849 100.061 0.00185211C99.9808 -0.00678791 99.9007 0.0175613 99.8208 0.0183467C99.7141 0.0175613 99.6074 0.00342303 99.4918 0.0199176C99.4473 0.0269867 99.4117 0.0395541 99.3673 0.048194C99.2872 0.0678305 99.2073 0.105532 99.1272 0.134594C99.1095 0.140092 99.1006 0.144805 99.0828 0.151089C98.9938 0.182507 98.9049 0.189576 98.8249 0.232776L85.6653 7.29796C84.7672 7.78102 84.4828 8.81467 85.034 9.60877C85.3896 10.1287 86.012 10.4162 86.6611 10.4162C86.9991 10.4162 87.3369 10.3377 87.6482 10.1719L93.401 7.08117L78.5787 26.5589L63.8986 14.697C63.8364 14.6428 63.7474 14.6223 63.6764 14.5784C63.5697 14.5132 63.4719 14.4479 63.3563 14.404C63.2318 14.3608 63.1161 14.3396 63.0006 14.3176C62.885 14.2964 62.7694 14.2744 62.6538 14.2728C62.5204 14.2705 62.4049 14.2901 62.2804 14.3105C62.1648 14.3294 62.0492 14.3451 61.9425 14.3828C61.8269 14.4228 61.7202 14.4849 61.6046 14.5477C61.5335 14.5894 61.4446 14.6074 61.3823 14.6592L18.6759 46.9179C17.8757 47.522 17.7868 48.5823 18.4625 49.2885C18.8448 49.678 19.3783 49.8776 19.9119 49.8776Z" fill="#262626"/>
</g>
</g>
<defs>
<clipPath id="clip0_2_204">
<rect width="107" height="104" fill="white"/>
</clipPath>
</defs>
</svg>
